<!--?xml version="1.0" standalone="no"?-->

<svg version="1.0" xmlns="http://www.w3.org/2000/svg" width="300.000000pt" height="300.000000pt" viewBox="0 0 300.000000 300.000000" preserveAspectRatio="xMidYMid meet">
<g transform="translate(0.000000,300.000000) scale(0.100000,-0.100000)" fill="#EC583A" stroke="none">
<path class="node" id="node1" d="M460 2950 c-119 -26 -213 -84 -290 -177 -54 -65 -72 -98 -101 -183
l-23 -65 0 -1025 c0 -1132 -4 -1053 62 -1185 48 -97 190 -220 277 -241 17 -4
36 -12 44 -18 10 -8 310 -11 1070 -11 l1056 0 60 23 c83 32 121 57 183 116 71
67 106 119 137 201 l25 68 0 1048 0 1048 -26 68 c-15 37 -42 88 -60 111 -18
24 -34 47 -36 51 -12 26 -139 118 -200 144 l-73 32 -1035 1 c-569 1 -1051 -2
-1070 -6z m770 -815 c146 -146 269 -265 275 -265 6 0 129 119 275 265 146 146
269 265 275 265 5 0 89 -79 185 -175 l174 -175 -274 -275 -275 -275 275 -275
274 -274 -174 -176 c-96 -96 -179 -175 -185 -175 -5 0 -129 119 -275 265 -146
146 -269 265 -275 265 -6 0 -129 -119 -275 -265 -146 -146 -269 -265 -275
-265 -6 0 -89 79 -185 175 l-175 175 275 275 275 275 -275 275 -275 275 175
175 c96 96 179 175 185 175 6 0 129 -119 275 -265z"></path>
</g>
<g transform="translate(0.000000,300.000000) scale(0.100000,-0.100000)" fill="#FFFFFF" stroke="none">

<path class="node" id="node3" d="M770 2225 l-175 -175 275 -275 275 -275 -275 -275 -275 -275 175
-175 c96 -96 179 -175 185 -175 6 0 129 119 275 265 146 146 269 265 275 265
6 0 129 -119 275 -265 146 -146 270 -265 275 -265 6 0 89 79 185 175 l174 176
-274 274 -275 275 275 275 274 275 -174 175 c-96 96 -180 175 -185 175 -6 0
-129 -119 -275 -265 -146 -146 -269 -265 -275 -265 -6 0 -129 119 -275 265
-146 146 -269 265 -275 265 -6 0 -89 -79 -185 -175z"></path>
</g>
</svg>